<svg style="enable-background:new 0 0 512 512;" version="1.1" viewBox="0 0 512 640" x="0px" xml:space="preserve" xmlns="http://www.w3.org/2000/svg" xmlns:xlink="http://www.w3.org/1999/xlink" y="0px">
    <g>
        <path d="M268,40.3c-6.6-6.6-17.4-6.6-24,0L25.4,258.9c-6.6,6.6-6.6,17.4,0,24c6.6,6.6,17.3,6.6,24,0L70,262.2   v197.5c0,9.4,7.8,17.3,17.1,17.3h122.5c9.4,0,17.3-7.9,17.3-17.3V368h58v91.7c0,9.4,7.9,17.3,17.3,17.3h122.5   c9.4,0,17.1-7.9,17.1-17.3V262.2l20.6,20.7c3.3,3.3,7.6,5,12,5s8.7-1.7,12-5c6.6-6.6,6.6-17.4,0-24L268,40.3z M408,443h-89v-91.7   c0-9.4-7.3-17.3-16.7-17.3h-92.6c-9.4,0-16.7,7.9-16.7,17.3V443h-89V228.2L256,76.3l152,151.9V443z"/>
    </g>
    <!--<text fill="#000000" font-family="'Helvetica Neue', Helvetica, Arial-Unicode, Arial, Sans-serif" font-size="5px" font-weight="bold" x="0" y="527">Created by Guru</text>
    <text fill="#000000" font-family="'Helvetica Neue', Helvetica, Arial-Unicode, Arial, Sans-serif" font-size="5px" font-weight="bold" x="0" y="532">from the Noun Project</text>-->
</svg>