<svg fill="#000000" xmlns="http://www.w3.org/2000/svg" xmlns:xlink="http://www.w3.org/1999/xlink" version="1.1" x="0px" y="0px" viewBox="0 0 144.083 144" enable-background="new 0 0 144.083 144" xml:space="preserve"><path d="M111.766,62.216L78.881,29.331c-0.563-0.563-1.559-0.563-2.121,0L33.564,72.526c-0.284,0.284-0.442,0.671-0.439,1.072  c0.003,0.402,0.168,0.786,0.457,1.066l20.317,19.666c0.279,0.271,0.653,0.422,1.043,0.422h25.037c0.393,0,0.768-0.153,1.049-0.427  l30.725-29.977c0.287-0.279,0.449-0.663,0.453-1.064C112.208,62.885,112.049,62.499,111.766,62.216z M79.37,91.753H55.55  L36.764,73.569l19.333-19.332l30.482,30.481L79.37,91.753z M88.725,82.624L58.218,52.116l19.603-19.604l30.75,30.751L88.725,82.624z  "/><rect x="34.625" y="102.606" width="76.491" height="3"/><rect x="46.441" y="112.608" width="52.858" height="3"/></svg>