<svg enable-background="new 0 0 100 100" version="1.1" viewBox="0 0 100 125" x="0px" xml:space="preserve" xmlns="http://www.w3.org/2000/svg" xmlns:xlink="http://www.w3.org/1999/xlink" y="0px">
    <g>
        <g>
            <path d="M16.1,82.1c0.2,0,0.3,0,0.5-0.1l17-4.2c0,0,0,0,0.1,0c0.1,0,0.2-0.1,0.4-0.1    c0,0,0.1,0,0.1-0.1c0.1-0.1,0.3-0.2,0.4-0.3L79,32.7l4.2-4.2c1.1-1.1,1.8-2.6,1.8-4.2c0-1.6-0.6-3.1-1.8-4.2l-7.1-7.1    c-2.3-2.3-6.1-2.3-8.5,0l-4.2,4.2L18.9,61.7c-0.1,0.1-0.2,0.3-0.3,0.4c0,0,0,0.1-0.1,0.1c-0.1,0.1-0.1,0.2-0.1,0.3c0,0,0,0,0,0.1    l-4.2,17c-0.2,0.7,0,1.4,0.5,1.9C15,81.9,15.5,82.1,16.1,82.1z M33,73l-3.5-3.5l41.7-41.7l2.6,2.6l0.9,0.9L33,73z M70.5,15.8    c0.8-0.8,2-0.8,2.8,0l7.1,7.1v0c0.4,0.4,0.6,0.9,0.6,1.4c0,0.5-0.2,1-0.6,1.4l-2.8,2.8l-9-9l-0.9-0.9L70.5,15.8z M64.9,21.4    l3.5,3.5L26.7,66.7l-3.5-3.5L64.9,21.4z M21.4,67.1l7.7,7.7l-5.7,1.4L20,72.7L21.4,67.1z M84,85H16c-1.1,0-2,0.9-2,2s0.9,2,2,2h68    c1.1,0,2-0.9,2-2S85.1,85,84,85z" fill="#000000"/>
        </g>
    </g>
    <!--<text fill="#000000" font-family="'Helvetica Neue', Helvetica, Arial-Unicode, Arial, Sans-serif" font-size="5px" font-weight="bold" x="0" y="115">Created by Daniel Boros</text>
    <text fill="#000000" font-family="'Helvetica Neue', Helvetica, Arial-Unicode, Arial, Sans-serif" font-size="5px" font-weight="bold" x="0" y="120">from the Noun Project</text>-->
</svg>