<svg enable-background="new -370 248.3 100 100" version="1.1" viewBox="-370 248.3 100 125" x="0px" xml:space="preserve" xmlns="http://www.w3.org/2000/svg" xmlns:xlink="http://www.w3.org/1999/xlink" y="0px">
    <g>
        <path d="M-315.9,295.4l28.7-28.7l-1.5-1.5l-28.7,28.7c-1.9-1.2-4.5-1-6.2,0.7c-1.9,1.9-1.9,5.1,0,7s5.1,1.9,7,0   C-314.9,299.9-314.7,297.3-315.9,295.4z"/>
        <g>
            <path d="M-320,318.1c-10.9,0-19.8-8.9-19.8-19.8s8.9-19.8,19.8-19.8c10.9,0,19.8,8.9,19.8,19.8S-309.1,318.1-320,318.1z     M-320,279.4c-10.4,0-18.8,8.4-18.8,18.8c0,10.4,8.4,18.8,18.8,18.8s18.8-8.4,18.8-18.8C-301.2,287.8-309.6,279.4-320,279.4z"/>
        </g>
        <g>
            <path d="M-320,329.7c-17.3,0-31.5-14.1-31.5-31.5s14.1-31.5,31.5-31.5c17.3,0,31.5,14.1,31.5,31.5S-302.7,329.7-320,329.7z     M-320,267.8c-16.8,0-30.5,13.7-30.5,30.5c0,16.8,13.7,30.5,30.5,30.5c16.8,0,30.5-13.7,30.5-30.5    C-289.5,281.4-303.2,267.8-320,267.8z"/>
        </g>
        <path d="M-320,258.8c21.8,0,39.5,17.7,39.5,39.5s-17.7,39.5-39.5,39.5s-39.5-17.7-39.5-39.5S-341.8,258.8-320,258.8 M-320,252.6   c-25.2,0-45.7,20.5-45.7,45.7S-345.2,344-320,344s45.7-20.5,45.7-45.7S-294.8,252.6-320,252.6z"/>
    </g>
    <!--<text fill="#000000" font-family="'Helvetica Neue', Helvetica, Arial-Unicode, Arial, Sans-serif" font-size="5px" font-weight="bold" x="-370" y="363.3">Created by Lloyd Humphreys</text>
    <text fill="#000000" font-family="'Helvetica Neue', Helvetica, Arial-Unicode, Arial, Sans-serif" font-size="5px" font-weight="bold" x="-370" y="368.3">from the Noun Project</text>-->
</svg>