<svg style="enable-background:new 0 0 100 100;" version="1.1" viewBox="0 0 100 125" x="0px" xml:space="preserve" xmlns="http://www.w3.org/2000/svg" xmlns:xlink="http://www.w3.org/1999/xlink" y="0px">
    <path d="M77.2,96.2c-0.8,0-1.7-0.2-2.4-0.7L50,79.4L25.2,95.5c-1.5,1-3.5,0.9-5-0.2c-1.5-1.1-2.1-3-1.6-4.7  l7.8-27.5L3.2,43.5c-1.4-1.2-1.9-3-1.3-4.7c0.6-1.7,2.1-2.9,3.9-3l27.8-2L46,6.4c0.7-1.6,2.3-2.6,4-2.6c1.7,0,3.3,1,4,2.6l12.5,27.4  l27.8,2c1.8,0.1,3.3,1.3,3.9,3c0.6,1.7,0,3.6-1.3,4.7L73.6,63.1l7.8,27.5c0.5,1.8-0.1,3.6-1.6,4.7C79,95.9,78.1,96.2,77.2,96.2z"/>
    <!--<text fill="#000000" font-family="'Helvetica Neue', Helvetica, Arial-Unicode, Arial, Sans-serif" font-size="5px" font-weight="bold" x="0" y="115">Created by Noah</text>
    <text fill="#000000" font-family="'Helvetica Neue', Helvetica, Arial-Unicode, Arial, Sans-serif" font-size="5px" font-weight="bold" x="0" y="120">from the Noun Project</text>-->
</svg>