<svg style="enable-background:new 0 0 100 100;" version="1.1" viewBox="0 0 100 125" x="0px" xml:space="preserve" xmlns="http://www.w3.org/2000/svg" xmlns:xlink="http://www.w3.org/1999/xlink" y="0px">
    <path d="M99.5,37.8L99.5,37.8c-1.4-4.2-5-7.2-9.3-7.9l-20.6-3L60.4,8.3c-2-4-5.9-6.5-10.4-6.5  c-4.4,0-8.4,2.5-10.4,6.5l-9.2,18.6l-20.6,3c-4.4,0.6-8,3.7-9.4,7.9c-1.4,4.2-0.3,8.8,2.9,11.9l14.9,14.5l-3.5,20.5  c-0.7,4.4,1,8.7,4.6,11.3c2,1.5,4.4,2.2,6.8,2.2c1.9,0,3.7-0.5,5.4-1.3L50,87.2l18.4,9.7c1.7,0.9,3.5,1.3,5.4,1.3  c2.5,0,4.8-0.8,6.8-2.2c3.6-2.6,5.4-7,4.6-11.3l-3.5-20.5l14.9-14.5C99.7,46.6,100.8,42,99.5,37.8z M71.8,64l3.8,22.3  c0.1,0.7-0.2,1.4-0.8,1.9c-0.6,0.4-1.4,0.5-2,0.1l-20-10.5c-1.8-0.9-4-0.9-5.8,0l-20,10.5c-0.6,0.3-1.4,0.3-2-0.1  c-0.6-0.4-0.9-1.1-0.8-1.9L28.2,64c0.3-2-0.3-4.1-1.8-5.5L10.2,42.7c-0.5-0.5-0.7-1.3-0.5-1.9c0.2-0.7,0.8-1.2,1.5-1.3l22.4-3.3  c2-0.3,3.8-1.6,4.7-3.4l10-20.3c0.3-0.7,1-1.1,1.7-1.1c0.7,0,1.4,0.4,1.7,1.1l10,20.3c0.9,1.8,2.6,3.1,4.7,3.4l22.4,3.3  c0.7,0.1,1.3,0.6,1.5,1.3c0.2,0.7,0,1.4-0.5,1.9L73.6,58.5C72.1,59.9,71.5,62,71.8,64z"/>
    <!--<text fill="#000000" font-family="'Helvetica Neue', Helvetica, Arial-Unicode, Arial, Sans-serif" font-size="5px" font-weight="bold" x="0" y="115">Created by Noah</text>
    <text fill="#000000" font-family="'Helvetica Neue', Helvetica, Arial-Unicode, Arial, Sans-serif" font-size="5px" font-weight="bold" x="0" y="120">from the Noun Project</text>-->
</svg>