<svg fill="#000000" xmlns="http://www.w3.org/2000/svg" xmlns:xlink="http://www.w3.org/1999/xlink" viewBox="0 0 54 54" version="1.1" x="0px" y="0px"><title>lp</title><desc>Created with Sketch.</desc><g stroke="none" stroke-width="1" fill="none" fill-rule="evenodd"><g transform="translate(-183.000000, -183.000000)" fill="#000000"><g transform="translate(183.000000, 183.000000)"><path d="M54,27 C54,12.0883118 41.9116882,0 27,0 C12.0883118,0 0,12.0883118 0,27 C0,41.9116882 12.0883118,54 27,54 C41.9116882,54 54,41.9116882 54,27 Z M4,27 C4,14.2974508 14.2974508,4 27,4 C39.7025492,4 50,14.2974508 50,27 C50,39.7025492 39.7025492,50 27,50 C14.2974508,50 4,39.7025492 4,27 Z"/><path d="M27,46 C28.1045695,46 29,45.1045695 29,44 C29,42.8954305 28.1045695,42 27,42 C18.7157288,42 12,35.2842712 12,27 C12,25.8954305 11.1045695,25 10,25 C8.8954305,25 8,25.8954305 8,27 C8,37.4934102 16.5065898,46 27,46 Z"/><path d="M27,8 C25.8954305,8 25,8.8954305 25,10 C25,11.1045695 25.8954305,12 27,12 C35.2842712,12 42,18.7157288 42,27 C42,28.1045695 42.8954305,29 44,29 C45.1045695,29 46,28.1045695 46,27 C46,16.5065898 37.4934102,8 27,8 Z"/><path d="M38,27 C38,20.9248678 33.0751322,16 27,16 C20.9248678,16 16,20.9248678 16,27 C16,33.0751322 20.9248678,38 27,38 C33.0751322,38 38,33.0751322 38,27 Z M20,27 C20,23.1340068 23.1340068,20 27,20 C30.8659932,20 34,23.1340068 34,27 C34,30.8659932 30.8659932,34 27,34 C23.1340068,34 20,30.8659932 20,27 Z"/><circle cx="27" cy="27" r="3"/></g></g></g></svg>