<svg fill="#000000" xmlns="http://www.w3.org/2000/svg" xmlns:xlink="http://www.w3.org/1999/xlink" version="1.1" x="0px" y="0px" viewBox="0 0 66 66" style="enable-background:new 0 0 66 66;" xml:space="preserve"><g><path d="M40.7,3c-1.1-1.1-2.7-1.7-4.3-1.7h-17C13.5,1.3,8.6,6.1,8.6,12V54c0,5.9,4.9,10.8,10.8,10.8h27.2c5.9,0,10.8-4.9,10.8-10.8   V21.3c0-1.7-0.7-3.4-1.9-4.5L40.7,3z M51.4,17.7h-8.6c-1.6,0-2.8-1.2-2.8-2.8V6.9L51.4,17.7z M54,54c0,4.1-3.3,7.4-7.4,7.4H19.4   C15.3,61.3,12,58,12,54V12c0-4.1,3.3-7.4,7.4-7.4h17h0.1v10.2c0,3.4,2.8,6.2,6.2,6.2H54c0,0.1,0,0.1,0,0.2V54z"/><rect x="25.4" y="29" width="21.2" height="3.4"/><rect x="19.4" y="38.1" width="27.2" height="3.4"/><rect x="19.4" y="47.2" width="27.2" height="3.4"/></g></svg>