<svg fill="#000000" xmlns="http://www.w3.org/2000/svg" xmlns:xlink="http://www.w3.org/1999/xlink" version="1.1" x="0px" y="0px" viewBox="0 0 66 66" style="enable-background:new 0 0 66 66;" xml:space="preserve"><g><path d="M40.3,4.5c-1.1-1.1-2.6-1.6-4.1-1.6H20.1c-5.6,0-10.2,4.6-10.2,10.2v39.8c0,5.6,4.6,10.2,10.2,10.2h25.8   c5.6,0,10.2-4.6,10.2-10.2v-31c0-1.6-0.6-3.2-1.8-4.3L40.3,4.5z M50.4,18.5h-8.2c-1.5,0-2.7-1.2-2.7-2.7V8.2L50.4,18.5z M52.9,52.9   c0,3.9-3.1,7-7,7H20.1c-3.9,0-7-3.1-7-7V13.1c0-3.9,3.1-7,7-7h16.1h0.1v9.7c0,3.2,2.7,5.9,5.9,5.9h10.7c0,0.1,0,0.1,0,0.2V52.9z"/><rect x="25.5" y="29.2" width="21.5" height="3.2"/><rect x="25.5" y="37.8" width="21.5" height="3.2"/><rect x="25.5" y="46.5" width="21.5" height="3.2"/><rect x="19.5" y="29.2" width="3.2" height="3.2"/><rect x="19.5" y="37.8" width="3.2" height="3.2"/><rect x="19.5" y="46.5" width="3.2" height="3.2"/></g></svg>