<svg fill="#000000" xmlns="http://www.w3.org/2000/svg" xmlns:xlink="http://www.w3.org/1999/xlink" version="1.1" x="0px" y="0px" viewBox="0 0 96 96" style="enable-background:new 0 0 96 96;" xml:space="preserve"><path d="M87,30.5c-0.7-0.7-1.6-1.2-2.5-1.5c0-0.1,0-0.1,0-0.2V24c0-2.5-2-4.6-4.5-4.6H45.3l-4.8-4.3  c-0.6-0.6-1.5-0.9-2.3-0.9H16c-2.5,0-4.5,2.1-4.5,4.6v9.9c0,0.1,0,0.1,0,0.2c-0.9,0.3-1.8,0.8-2.5,1.5c-1,1.1-1.6,2.5-1.5,4l1.7,42  c0.1,3,2.6,5.3,5.5,5.3h66.5c3,0,5.4-2.3,5.5-5.3l1.7-42C88.6,33,88,31.5,87,30.5z M14.5,18.8c0-0.9,0.7-1.6,1.5-1.6h22.1  c0.1,0,0.2,0,0.3,0.1l5.2,4.6c0.3,0.2,0.6,0.4,1,0.4H80c0.8,0,1.5,0.7,1.5,1.6v4.8h-67V18.8z M83.8,76.3c-0.1,1.3-1.2,2.4-2.5,2.4  H14.7c-1.4,0-2.5-1.1-2.5-2.4l-1.7-42c0-0.7,0.2-1.3,0.7-1.8c0.5-0.5,1.1-0.8,1.9-0.8H83c0.7,0,1.4,0.3,1.9,0.8  c0.5,0.5,0.7,1.1,0.7,1.8L83.8,76.3z"/></svg>