<svg fill="#000000" xmlns="http://www.w3.org/2000/svg" xmlns:xlink="http://www.w3.org/1999/xlink" version="1.1" x="0px" y="0px" viewBox="0 0 100 100" style="enable-background:new 0 0 100 100;" xml:space="preserve"><path d="M79.8,42.6c0.2,0.1,0.5,0.2,0.8,0.2c0.5,0,1-0.2,1.4-0.6l9-9c0.4-0.4,0.6-0.9,0.6-1.4c0-0.5-0.2-1-0.6-1.4l-9-9  c-0.6-0.6-1.4-0.7-2.2-0.4c-0.7,0.3-1.2,1-1.2,1.8v5.5h-1.9c-6.4,0-12.6,2.7-17,7.3l-8.9,9.3l-8.9-9.3c-4.4-4.6-10.6-7.3-17-7.3H12  c-1.9,0-3.5,1.6-3.5,3.5s1.6,3.5,3.5,3.5h6.5h6.4c4.5,0,8.8,1.9,11.9,5.1l9.1,9.5l-0.1,0.1l-9,9.5c-3.1,3.3-7.5,5.1-11.9,5.1H12  c-1.9,0-3.5,1.6-3.5,3.5s1.6,3.5,3.5,3.5h12.9c6.4,0,12.6-2.7,17-7.3l8.9-9.3l8.9,9.3c4.4,4.6,10.6,7.3,17,7.3h1.9v5.5  c0,0.8,0.5,1.5,1.2,1.8c0.2,0.1,0.5,0.2,0.8,0.2c0.5,0,1-0.2,1.4-0.6l9-9c0.4-0.4,0.6-0.9,0.6-1.4s-0.2-1-0.6-1.4l-9-9  c-0.6-0.6-1.4-0.7-2.2-0.4c-0.7,0.3-1.2,1-1.2,1.8v5.5h-1.9c-1.8,0-3.6-0.3-5.3-0.9c-1.7-0.6-3.3-1.5-4.8-2.6  c-0.7-0.5-1.3-1-1.9-1.6L55.6,50l9.1-9.5c3.1-3.3,7.5-5.1,11.9-5.1h1.9v5.5C78.5,41.6,79,42.3,79.8,42.6z"/></svg>