<svg fill="#000000" xmlns="http://www.w3.org/2000/svg" xmlns:xlink="http://www.w3.org/1999/xlink" version="1.1" x="0px" y="0px" viewBox="0 0 100 100" enable-background="new 0 0 100 100" xml:space="preserve"><g><g><path fill="none" d="M65.35,39.568L41.993,69.695c-0.261,0.336-0.828,0.336-1.09,0l-9.259-11.94L15.311,78.818v3.533h69.377    V64.509L65.35,39.568z"/><path fill="none" d="M31.1,56.208c0.261-0.336,0.828-0.336,1.089,0l9.259,11.94l23.357-30.127c0.261-0.336,0.828-0.336,1.09,0    l18.793,24.237V17.649H15.311v58.919L31.1,56.208z M39.629,28.191c4.944,0,8.966,4.021,8.966,8.965s-4.022,8.965-8.966,8.965    c-4.944,0-8.966-4.021-8.966-8.965S34.685,28.191,39.629,28.191z"/><circle fill="none" cx="39.629" cy="37.156" r="7.588"/><path fill="none" d="M6.378,91.391h87.245V8.609H6.378V91.391z M13.934,78.581V16.961c0-0.381,0.308-0.689,0.689-0.689h70.754    c0.381,0,0.689,0.309,0.689,0.689v47.311v18.768c0,0.382-0.308,0.689-0.689,0.689H14.622c-0.381,0-0.689-0.308-0.689-0.689V78.581    z"/><path d="M94.311,7.231H5.689C5.308,7.231,5,7.54,5,7.921v84.159c0,0.381,0.308,0.689,0.689,0.689h88.622    c0.381,0,0.689-0.308,0.689-0.689V7.921C95,7.54,94.692,7.231,94.311,7.231z M93.623,91.391H6.378V8.609h87.245V91.391z"/><path d="M14.622,83.729h70.754c0.381,0,0.689-0.308,0.689-0.689V64.272V16.961c0-0.381-0.308-0.689-0.689-0.689H14.622    c-0.381,0-0.689,0.309-0.689,0.689v61.621v4.458C13.934,83.421,14.242,83.729,14.622,83.729z M15.311,82.351v-3.533l16.334-21.063    l9.259,11.94c0.261,0.336,0.829,0.336,1.09,0L65.35,39.568l19.338,24.94v17.843H15.311z M84.688,17.649v44.609L65.895,38.021    c-0.261-0.336-0.828-0.336-1.09,0L41.449,68.148l-9.259-11.94c-0.261-0.336-0.828-0.336-1.089,0l-15.789,20.36V17.649H84.688z"/><path d="M39.629,46.12c4.944,0,8.966-4.021,8.966-8.965s-4.022-8.965-8.966-8.965c-4.944,0-8.966,4.021-8.966,8.965    S34.685,46.12,39.629,46.12z M39.629,29.569c4.184,0,7.588,3.404,7.588,7.587c0,4.184-3.405,7.587-7.588,7.587    c-4.184,0-7.588-3.403-7.588-7.587C32.04,32.973,35.445,29.569,39.629,29.569z"/></g></g></svg>