<svg fill="#000000" xmlns="http://www.w3.org/2000/svg" xmlns:xlink="http://www.w3.org/1999/xlink" version="1.1" x="0px" y="0px" viewBox="0 0 64 64" enable-background="new 0 0 64 64" xml:space="preserve"><g display="none"><circle display="inline" fill="#000000" cx="32" cy="32" r="32"/><circle display="inline" fill="#000000" stroke="#000000" stroke-miterlimit="10" cx="32" cy="32" r="28.662"/><path display="inline" fill="#000000" d="M19.58,48.464V15.536L50.42,32.001L19.58,48.464z"/></g><g display="none"><g display="inline"><circle fill="#000000" cx="32" cy="32" r="32"/></g><g display="inline"><path fill="#000000" d="M32,61.162C15.92,61.162,2.838,48.08,2.838,32C2.838,15.919,15.92,2.837,32,2.837    c16.081,0,29.163,13.082,29.163,29.163C61.163,48.08,48.081,61.162,32,61.162z M32,3.837C16.471,3.837,3.838,16.471,3.838,32    c0,15.528,12.634,28.162,28.162,28.162c15.529,0,28.163-12.634,28.163-28.162C60.163,16.471,47.529,3.837,32,3.837z"/></g><g display="inline"><path fill="#000000" d="M19.58,48.464V15.536L50.42,32.001L19.58,48.464z"/></g></g><g display="none"><rect x="-709.672" y="-163.661" display="inline" fill="#000000" width="804" height="398"/></g><g><g><path d="M20.373,15.715v32.569L50.877,32L20.373,15.715z M22.373,19.049L46.631,32l-24.258,12.95V19.049z"/><path d="M32,64c17.645,0,32-14.355,32-32S49.644,0,32,0S0,14.356,0,32S14.355,64,32,64z M32,2c16.542,0,30,13.458,30,30    S48.542,62,32,62S2,48.542,2,32S15.458,2,32,2z"/><path d="M32,60.285c15.596,0,28.284-12.688,28.284-28.284S47.595,3.716,32,3.716S3.715,16.405,3.715,32S16.404,60.285,32,60.285z     M32,5.716c14.493,0,26.284,11.791,26.284,26.284S46.493,58.285,32,58.285S5.715,46.493,5.715,32S17.507,5.716,32,5.716z"/></g></g><g display="none"><circle display="inline" fill="#000000" stroke="#000000" stroke-width="2" stroke-miterlimit="10" cx="32" cy="32" r="31"/><circle display="inline" fill="#000000" stroke="#000000" stroke-width="2" stroke-miterlimit="10" cx="32" cy="32" r="27.284"/><path display="inline" fill="#000000" stroke="#000000" stroke-width="2" stroke-miterlimit="10" d="M21.372,46.618V17.382   l27.381,14.618L21.372,46.618z"/></g><g display="none"><g display="inline"><circle fill="#000000" cx="32" cy="32" r="31"/><path d="M32,64C14.355,64,0,49.645,0,32S14.355,0,32,0s32,14.355,32,32S49.644,64,32,64z M32,2C15.458,2,2,15.458,2,32    s13.458,30,30,30s30-13.458,30-30S48.542,2,32,2z"/></g><g display="inline"><circle fill="#000000" cx="32" cy="32" r="27.284"/><path fill="#000000" d="M32,60.285C16.404,60.285,3.715,47.596,3.715,32S16.404,3.716,32,3.716S60.284,16.405,60.284,32    S47.595,60.285,32,60.285z M32,5.716C17.507,5.716,5.715,17.507,5.715,32S17.507,58.285,32,58.285S58.284,46.493,58.284,32    S46.493,5.716,32,5.716z"/></g><g display="inline"><path fill="#000000" d="M21.372,46.618V17.382l27.381,14.618L21.372,46.618z"/><path d="M20.373,48.285V15.715L50.877,32L20.373,48.285z M22.373,19.049v25.901L46.631,32L22.373,19.049z"/></g></g><g display="none"><g display="inline"><path d="M-20.596,40.241c-2.619,0-4.798,1.886-5.269,4.37h-10.202v2h10.202c0.471,2.484,2.65,4.37,5.269,4.37    s4.798-1.886,5.269-4.37h43.26v-2h-43.26C-15.798,42.128-17.977,40.241-20.596,40.241z"/><polygon points="-11.738,2.452 -11.738,24.572 7.42,13.513   "/><path d="M21.533-9.931h-51.2c-3.52,0-6.4,2.88-6.4,6.4v34.086c0,3.52,2.88,6.4,6.4,6.4h51.2c3.52,0,6.4-2.88,6.4-6.4V-3.531    C27.933-7.051,25.053-9.931,21.533-9.931z M-13.738,28.037v-29.05l25.157,14.525L-13.738,28.037z"/></g></g></svg>