<svg fill="#000000" xmlns="http://www.w3.org/2000/svg" xmlns:xlink="http://www.w3.org/1999/xlink" version="1.1" x="0px" y="0px" viewBox="0 0 100 100" style="enable-background:new 0 0 100 100;" xml:space="preserve"><path d="M85,7.5H15c-4.142,0-7.5,3.358-7.5,7.5v70c0,4.142,3.358,7.5,7.5,7.5h70c4.142,0,7.5-3.358,7.5-7.5V15   C92.5,10.858,89.142,7.5,85,7.5z M85,85H15V15h70V85z"/><path d="M48.337,76.619c1.134,1.964,3.306,3.189,5.958,3.36C54.515,79.993,54.736,80,54.958,80c2.132,0,4.41-0.643,6.485-1.841   c3.91-2.257,6.165-5.879,6.048-9.169c0.001-0.028,0.008-31.06,0.008-31.06c0.622,0.935,1.256,1.829,1.875,2.7   c4.491,6.319,8.37,11.776,3.271,26.029l-0.842,2.354l4.708,1.685l0.842-2.354c5.978-16.708,0.729-24.094-3.903-30.61   C70.391,33.427,67.5,29.36,67.5,22.5V20h-5v2.5c0,0.337,0.015,0.659,0.027,0.986c-0.009,0.088-0.027,0.174-0.027,0.264v39.229   c-2.617-0.71-5.887-0.245-8.943,1.52C48.419,67.465,46.126,72.789,48.337,76.619z"/><rect x="22.5" y="22.5" width="32.5" height="7.5"/><rect x="22.5" y="35" width="32.5" height="7.5"/><rect x="22.5" y="47.5" width="32.5" height="7.5"/></svg>