<svg fill="#000000" xmlns="http://www.w3.org/2000/svg" xmlns:xlink="http://www.w3.org/1999/xlink" version="1.1" x="0px" y="0px" viewBox="0 0 100 100" enable-background="new 0 0 100 100" xml:space="preserve"><g><path fill="#000000" d="M50.004,6.858c-23.792,0-43.147,19.355-43.147,43.143s19.355,43.141,43.147,43.141   c23.784,0,43.14-19.354,43.14-43.141S73.788,6.858,50.004,6.858z M50.004,89.664c-21.875,0-39.665-17.795-39.665-39.663   c0-21.873,17.79-39.666,39.665-39.666c21.867,0,39.656,17.793,39.656,39.666C89.66,71.869,71.871,89.664,50.004,89.664z"/><path fill="#000000" d="M70.354,59.918V26.632c0-0.634-0.276-1.23-0.747-1.648c-0.474-0.429-1.093-0.618-1.726-0.535l-28.443,3.569   c-1.096,0.136-1.916,1.07-1.916,2.178V56.53c-1.115-0.511-2.354-0.823-3.682-0.823c-1.858,0-3.718,0.533-5.361,1.542   c-4.446,2.723-6.102,8.155-3.679,12.105c1.439,2.353,4.095,3.761,7.094,3.761c1.86,0,3.711-0.533,5.363-1.542   c2.142-1.313,3.477-3.32,4.179-5.591c0.442-1.435,0.442-2.297,0.419-3.731c0.023-0.124,0.057-0.702,0.057-0.834V34.32l24.046-2.915   v24.164c-1.044-0.435-2.171-0.719-3.388-0.719c-1.858,0-3.709,0.535-5.362,1.542c-4.448,2.729-6.097,8.155-3.684,12.107   c1.448,2.351,4.099,3.757,7.104,3.757c1.854,0,3.71-0.535,5.357-1.542c2.142-1.312,4.012-3.479,4.224-5.853   c0.157-1.784,0.173-3.276,0.125-4.847C70.335,59.982,70.354,59.951,70.354,59.918z"/></g></svg>