<svg fill="#000000" xmlns="http://www.w3.org/2000/svg" xmlns:xlink="http://www.w3.org/1999/xlink" viewBox="0 0 48 48" version="1.1" x="0px" y="0px"><title>1.7</title><desc>Created with Sketch.</desc><g stroke="none" stroke-width="1" fill="none" fill-rule="evenodd"><g fill="#000000"><g><path d="M45,33.7802824 C45.2121289,37.6861829 41.4159852,40.6847266 37.9167747,41.6223372 C34.0530713,42.6576134 28.6195311,41.6978817 27.4117089,37.1902279 C26.2038867,32.682574 30.4296047,29.1346519 34.293308,28.0993757 C36.3753129,27.5415042 38.9131556,27.5629287 41,28.4066353 L41,6.99328744 C41,5.89242519 41.8877296,5 43,5 C44.1045695,5 45,5.89971268 45,6.99328744 L45,33.7802824 Z M0,7 C0,5.8954305 0.89784041,5 1.99161703,5 L28.008383,5 C29.1083227,5 30,5.88772964 30,7 C30,8.1045695 29.1021596,9 28.008383,9 L1.99161703,9 C0.891677316,9 0,8.11227036 0,7 Z M0,18 C0,16.8954305 0.894978851,16 1.99700466,16 L24.0029953,16 C25.1059106,16 26,16.8877296 26,18 C26,19.1045695 25.1050211,20 24.0029953,20 L1.99700466,20 C0.89408944,20 0,19.1122704 0,18 Z M0,29 C0,27.8954305 0.889673948,27 1.991155,27 L20.008845,27 C21.1085295,27 22,27.8877296 22,29 C22,30.1045695 21.1103261,31 20.008845,31 L1.991155,31 C0.891470458,31 0,30.1122704 0,29 Z M0,40 C0,38.8954305 0.894513756,38 1.99406028,38 L14.0059397,38 C15.1072288,38 16,38.8877296 16,40 C16,41.1045695 15.1054862,42 14.0059397,42 L1.99406028,42 C0.892771196,42 0,41.1122704 0,40 Z M40.9346705,33.5667612 C40.5374931,32.0844751 38.0349763,31.2379034 35.3285842,31.963079 C32.6221921,32.6882546 30.8782348,34.6726656 31.2754122,36.1549517 C31.6725896,37.6372378 34.1751064,38.4838095 36.8814985,37.7586339 C39.5878906,37.0334584 41.3318478,35.0490474 40.9346705,33.5667612 Z"/></g></g></g></svg>