<svg fill="#000000" xmlns="http://www.w3.org/2000/svg" xmlns:xlink="http://www.w3.org/1999/xlink" version="1.1" x="0px" y="0px" viewBox="0 0 100 100" enable-background="new 0 0 100 100" xml:space="preserve"><g><path d="M35,27.5h52.5c4.143,0,7.5-3.358,7.5-7.5s-3.357-7.5-7.5-7.5H35c-4.142,0-7.5,3.358-7.5,7.5S30.858,27.5,35,27.5z"/><path d="M87.5,42.5H35c-4.142,0-7.5,3.358-7.5,7.5c0,4.143,3.358,7.5,7.5,7.5h52.5c4.143,0,7.5-3.357,7.5-7.5   C95,45.858,91.643,42.5,87.5,42.5z"/><path d="M87.5,72.5H35c-4.142,0-7.5,3.357-7.5,7.5s3.358,7.5,7.5,7.5h52.5c4.143,0,7.5-3.357,7.5-7.5S91.643,72.5,87.5,72.5z"/></g><circle cx="12.5" cy="20" r="7.5"/><circle cx="12.5" cy="50" r="7.5"/><circle cx="12.5" cy="80" r="7.5"/></svg>