<svg fill="#000000" xmlns="http://www.w3.org/2000/svg" xmlns:xlink="http://www.w3.org/1999/xlink" version="1.1" x="0px" y="0px" viewBox="0 0 80 80" enable-background="new 0 0 80 80" xml:space="preserve"><path d="M68.453,34.319l-4.814-1.069c-0.375-1.198-0.863-2.346-1.43-3.451l2.605-4.335c0.973-1.555,1.461-3.84,0-5.305l-2.654-2.651  c-0.715-0.718-1.677-1.02-2.646-1.02c-1.004,0-2.021,0.328-2.779,0.855l-4.223,2.689c-1.096-0.568-2.238-1.055-3.428-1.441  l-1.08-4.869c-0.322-1.787-1.885-3.72-3.955-3.72h-3.75c-2.072,0-3.34,1.963-3.75,3.75l-1.205,4.811  c-1.268,0.404-2.49,0.923-3.65,1.535l-4.326-2.753c-0.762-0.527-1.775-0.855-2.783-0.855c-0.967,0-1.928,0.301-2.646,1.02  l-2.65,2.651c-1.465,1.465-0.973,3.75,0,5.305l2.738,4.564c-0.512,1.037-0.969,2.103-1.32,3.222l-4.811,1.069  c-1.787,0.322-3.721,1.884-3.721,3.955v3.75c0,2.071,1.963,3.339,3.75,3.749l4.871,1.217c0.338,1.033,0.756,2.027,1.234,2.988  l-2.742,4.57c-0.973,1.551-1.463,3.836,0,5.301l2.654,2.652c0.715,0.717,1.676,1.021,2.645,1.021c1.006,0,2.021-0.328,2.781-0.855  l4.336-2.766c1.168,0.619,2.396,1.143,3.674,1.547l1.201,4.799c0.41,1.787,1.678,3.75,3.75,3.75h3.75  c2.07,0,3.633-1.934,3.955-3.721l1.08-4.883c1.178-0.381,2.309-0.861,3.39-1.422l4.231,2.695c0.758,0.527,1.775,0.855,2.779,0.855  c0.971,0,1.932-0.305,2.646-1.021l2.654-2.652c1.461-1.465,0.973-3.75,0-5.301l-2.607-4.342c0.523-1.033,0.979-2.104,1.344-3.217  l4.873-1.217c1.787-0.41,3.75-1.678,3.75-3.749v-3.75C72.174,36.203,70.24,34.642,68.453,34.319z M69.174,42.024  c0,0.149-0.555,0.624-1.477,0.841l-4.873,1.215l-1.607,0.402l-0.516,1.576c-0.305,0.926-0.697,1.863-1.166,2.785l-0.756,1.48  l0.855,1.422l2.637,4.393c0.475,0.758,0.526,1.484,0.424,1.59l-2.66,2.654c-0.129,0.129-0.431,0.141-0.521,0.141  c-0.369,0-0.791-0.129-1.072-0.322l-0.047-0.031l-0.049-0.033l-4.229-2.695l-1.459-0.932l-1.535,0.797  c-0.963,0.502-1.951,0.914-2.933,1.23l-1.634,0.531l-0.369,1.676l-1.084,4.883l-0.023,0.117c-0.111,0.621-0.678,1.254-1.002,1.254  h-3.75c-0.15,0-0.627-0.553-0.842-1.479l-1.197-4.799l-0.408-1.627l-1.6-0.506c-1.066-0.338-2.135-0.789-3.178-1.34l-1.541-0.811  l-1.471,0.938l-4.336,2.762l-0.051,0.033l-0.047,0.031c-0.281,0.193-0.703,0.322-1.072,0.322c-0.09,0-0.393-0.012-0.523-0.146  l-2.652-2.648c-0.105-0.105-0.055-0.832,0.449-1.641l2.742-4.568l0.846-1.406l-0.732-1.471c-0.441-0.889-0.791-1.734-1.066-2.582  l-0.516-1.578l-1.611-0.402l-4.928-1.23c-0.869-0.201-1.42-0.676-1.42-0.825v-3.75c0-0.325,0.629-0.891,1.25-1.005l0.062-0.009  l0.059-0.014l4.811-1.066l1.693-0.375l0.518-1.652c0.279-0.882,0.654-1.793,1.146-2.789l0.732-1.471l-0.848-1.409L21.83,23.87  c-0.475-0.756-0.527-1.485-0.422-1.59l2.65-2.651c0.129-0.129,0.41-0.141,0.525-0.141c0.371,0,0.791,0.124,1.072,0.316l0.047,0.035  l0.053,0.032l4.326,2.757l1.469,0.935l1.541-0.812c1.025-0.539,2.088-0.99,3.166-1.33l1.592-0.51l0.406-1.623l1.217-4.866  c0.199-0.87,0.68-1.421,0.826-1.421h3.75c0.324,0,0.891,0.63,1.002,1.251l0.012,0.061l0.012,0.059l1.08,4.869l0.373,1.675  l1.635,0.528c0.996,0.322,1.994,0.744,2.971,1.248l1.535,0.796l1.459-0.928l4.219-2.69l0.049-0.032l0.047-0.035  c0.281-0.193,0.703-0.316,1.072-0.316c0.092,0,0.393,0.009,0.527,0.141l2.648,2.648c0.108,0.105,0.057,0.838-0.447,1.64  l-2.605,4.336l-0.855,1.43l0.756,1.482c0.531,1.037,0.936,2.015,1.239,2.982l0.519,1.658l1.693,0.375l4.814,1.066l0.059,0.018  l0.059,0.006c0.62,0.115,1.254,0.68,1.254,1.005V42.024L69.174,42.024z M42.197,27.979c-6.631,0-12.029,5.388-12.029,12.011  c0,6.625,5.398,12.007,12.029,12.007c6.635,0,12.031-5.383,12.031-12.007C54.229,33.367,48.832,27.979,42.197,27.979z   M42.227,49.068c-5.002,0-9.074-4.059-9.074-9.045s4.072-9.044,9.074-9.044c5,0,9.07,4.058,9.07,9.044S47.227,49.068,42.227,49.068z  "/></svg>