<svg fill="#000000" xmlns:dc="http://purl.org/dc/elements/1.1/" xmlns:cc="http://creativecommons.org/ns#" xmlns:rdf="http://www.w3.org/1999/02/22-rdf-syntax-ns#" xmlns:svg="http://www.w3.org/2000/svg" xmlns="http://www.w3.org/2000/svg" xmlns:sodipodi="http://sodipodi.sourceforge.net/DTD/sodipodi-0.dtd" xmlns:inkscape="http://www.inkscape.org/namespaces/inkscape" version="1.1" x="0px" y="0px" viewBox="0 0 100 100"><g transform="translate(0,-952.36218)"><path style="font-size:medium;font-style:normal;font-variant:normal;font-weight:normal;font-stretch:normal;text-indent:0;text-align:start;text-decoration:none;line-height:normal;letter-spacing:normal;word-spacing:normal;text-transform:none;direction:ltr;block-progression:tb;writing-mode:lr-tb;text-anchor:start;baseline-shift:baseline;opacity:1;color:#000000;fill:#000000;fill-opacity:1;stroke:none;stroke-width:4;marker:none;visibility:visible;display:inline;overflow:visible;enable-background:accumulate;font-family:Sans;-inkscape-font-specification:Sans" d="M 39.78125 18.96875 A 2.0002 2.0002 0 0 0 38 21 L 38 61.125 C 36.574768 60.413745 34.911931 60.04567 33.1875 60 C 29.985964 59.916 26.404001 60.80095 23 62.65625 C 19.597209 64.51095 16.955039 67.01105 15.40625 69.71875 C 13.857461 72.42635 13.390051 75.6062 14.96875 78.1875 C 16.54958 80.7724 19.577377 81.88385 22.78125 81.96875 C 25.985123 82.05375 29.565094 81.1676 32.96875 79.3125 C 36.371534 77.4579 39.013708 74.98895 40.5625 72.28125 C 41.491775 70.65669 42.026455 68.86728 41.96875 67.125 A 2.0002 2.0002 0 0 0 42 66.78125 L 42 21 A 2.0002 2.0002 0 0 0 39.78125 18.96875 z M 47.8125 19 A 2.0021961 2.0021961 0 1 0 48 23 L 84 23 A 2.0002 2.0002 0 1 0 84 19 L 48 19 A 2.0002 2.0002 0 0 0 47.8125 19 z M 47.8125 31 A 2.0021961 2.0021961 0 1 0 48 35 L 84 35 A 2.0002 2.0002 0 1 0 84 31 L 48 31 A 2.0002 2.0002 0 0 0 47.8125 31 z M 47.8125 43 A 2.0021961 2.0021961 0 1 0 48 47 L 84 47 A 2.0002 2.0002 0 1 0 84 43 L 48 43 A 2.0002 2.0002 0 0 0 47.8125 43 z M 47.8125 55 A 2.0021961 2.0021961 0 1 0 48 59 L 84 59 A 2.0002 2.0002 0 1 0 84 55 L 48 55 A 2.0002 2.0002 0 0 0 47.8125 55 z M 33.09375 64 C 35.432755 64.062 36.956878 64.8337 37.59375 65.875 C 38.231649 66.9181 38.177369 68.38685 37.09375 70.28125 C 36.010131 72.17575 33.898378 74.23565 31.0625 75.78125 C 28.227495 77.32645 25.25479 78.03095 22.90625 77.96875 C 20.55771 77.90675 19.04197 77.13325 18.40625 76.09375 C 17.7684 75.05075 17.791378 73.5819 18.875 71.6875 C 19.958622 69.7931 22.07038 67.7332 24.90625 66.1875 C 27.740909 64.6425 30.754334 63.9384 33.09375 64 z " transform="translate(0,952.36218)"/></g></svg>