<svg fill="#000000" xmlns:dc="http://purl.org/dc/elements/1.1/" xmlns:cc="http://creativecommons.org/ns#" xmlns:rdf="http://www.w3.org/1999/02/22-rdf-syntax-ns#" xmlns:svg="http://www.w3.org/2000/svg" xmlns="http://www.w3.org/2000/svg" xmlns:sodipodi="http://sodipodi.sourceforge.net/DTD/sodipodi-0.dtd" xmlns:inkscape="http://www.inkscape.org/namespaces/inkscape" version="1.1" x="0px" y="0px" viewBox="0 0 100 100"><g transform="translate(0,-952.36218)"><path style="font-size:medium;font-style:normal;font-variant:normal;font-weight:normal;font-stretch:normal;text-indent:0;text-align:start;text-decoration:none;line-height:normal;letter-spacing:normal;word-spacing:normal;text-transform:none;direction:ltr;block-progression:tb;writing-mode:lr-tb;text-anchor:start;baseline-shift:baseline;opacity:1;color:#000000;fill:#000000;fill-opacity:1;stroke:none;stroke-width:1.99999964000000000;marker:none;visibility:visible;display:inline;overflow:visible;enable-background:accumulate;font-family:Sans;-inkscape-font-specification:Sans" d="M 39.875 19.96875 A 1.0000999 1.0000999 0 0 0 39 21 L 39 63 C 37.53722 61.719711 35.447967 61.060704 33.15625 61 C 30.170244 60.921 26.730415 61.7847 23.46875 63.5625 C 20.207689 65.3399 17.713747 67.71435 16.28125 70.21875 C 14.848753 72.72305 14.500263 75.45965 15.84375 77.65625 C 17.188302 79.85485 19.82246 80.88945 22.8125 80.96875 C 25.80254 81.04775 29.238507 80.2151 32.5 78.4375 C 35.761057 76.6601 38.255001 74.28565 39.6875 71.78125 C 40.570874 70.236932 41.043287 68.611472 40.96875 67.0625 A 1.0000999 1.0000999 0 0 0 41 66.78125 L 41 21 A 1.0000999 1.0000999 0 0 0 39.875 19.96875 z M 45.8125 20 A 1.0043849 1.0043849 0 0 0 46 22 L 84 22 A 1.0000999 1.0000999 0 1 0 84 20 L 46 20 A 1.0000999 1.0000999 0 0 0 45.8125 20 z M 45.8125 32 A 1.0043849 1.0043849 0 0 0 46 34 L 84 34 A 1.0000999 1.0000999 0 1 0 84 32 L 46 32 A 1.0000999 1.0000999 0 0 0 45.8125 32 z M 45.8125 44 A 1.0043849 1.0043849 0 0 0 46 46 L 84 46 A 1.0000999 1.0000999 0 1 0 84 44 L 46 44 A 1.0000999 1.0000999 0 0 0 45.8125 44 z M 45.8125 56 A 1.0043849 1.0043849 0 0 0 46 58 L 84 58 A 1.0000999 1.0000999 0 1 0 84 56 L 46 56 A 1.0000999 1.0000999 0 0 0 45.8125 56 z M 33.125 63 C 35.679741 63.068 37.564926 63.91695 38.4375 65.34375 C 39.310587 66.77135 39.168662 68.68355 37.96875 70.78125 C 36.768838 72.87905 34.508855 75.0646 31.53125 76.6875 C 28.554082 78.3102 25.437373 79.03655 22.875 78.96875 C 20.312627 78.90075 18.403248 78.0509 17.53125 76.625 C 16.658188 75.1975 16.831336 73.2852 18.03125 71.1875 C 19.231164 69.0898 21.4599 66.9354 24.4375 65.3125 C 27.414495 63.6899 30.570054 62.9327 33.125 63 z " transform="translate(0,952.36218)"/></g></svg>