<svg fill="#000000" xmlns="http://www.w3.org/2000/svg" xmlns:xlink="http://www.w3.org/1999/xlink" version="1.1" x="0px" y="0px" viewBox="0 0 100 100" style="enable-background:new 0 0 100 100;" xml:space="preserve"><path d="M77,48H55.6c-0.8-2.3-3-4-5.6-4s-4.8,1.7-5.6,4H23c-1.1,0-2,0.9-2,2s0.9,2,2,2h21.4c0.8,2.3,3,4,5.6,4s4.8-1.7,5.6-4H77  c1.1,0,2-0.9,2-2S78.1,48,77,48z M50,54c-2.2,0-4-1.8-4-4s1.8-4,4-4s4,1.8,4,4S52.2,54,50,54z M77,64h-7.4c-0.8-2.3-3-4-5.6-4  s-4.8,1.7-5.6,4H23c-1.1,0-2,0.9-2,2s0.9,2,2,2h35.4c0.8,2.3,3,4,5.6,4s4.8-1.7,5.6-4H77c1.1,0,2-0.9,2-2S78.1,64,77,64z M64,70  c-2.2,0-4-1.8-4-4s1.8-4,4-4s4,1.8,4,4S66.2,70,64,70z M23,36h7.4c0.8,2.3,3,4,5.6,4s4.8-1.7,5.6-4H77c1.1,0,2-0.9,2-2s-0.9-2-2-2  H41.6c-0.8-2.3-3-4-5.6-4s-4.8,1.7-5.6,4H23c-1.1,0-2,0.9-2,2S21.9,36,23,36z M36,30c2.2,0,4,1.8,4,4s-1.8,4-4,4s-4-1.8-4-4  S33.8,30,36,30z"/></svg>